HIERARCHY
ROOT Hips
{
	OFFSET 0.000000 0.000000 0.000000
	CHANNELS 6 Xposition Yposition Zposition Zrotation Yrotation Xrotation 
	JOINT LowerBack
	{
		OFFSET 0.000000 0.000000 0.000000
		CHANNELS 3 Zrotation Yrotation Xrotation
		JOINT Spine
		{
			OFFSET 0.028270 2.035590 -0.193380
			CHANNELS 3 Zrotation Yrotation Xrotation
			JOINT Spine1
			{
				OFFSET 0.056720 2.048850 -0.042750
				CHANNELS 3 Zrotation Yrotation Xrotation
				JOINT Neck
				{
					OFFSET 0.000000 0.000000 0.000000
					CHANNELS 3 Zrotation Yrotation Xrotation
					JOINT Neck1
					{
						OFFSET -0.054170 1.746240 0.172020
						CHANNELS 3 Zrotation Yrotation Xrotation
						JOINT Head
						{
							OFFSET 0.104070 1.761360 -0.123970
							CHANNELS 3 Zrotation Yrotation Xrotation
							End Site
							{
								OFFSET 0.000000 0.000000 0.000000
							}
						}
					}
				}
				JOINT LeftShoulder
				{
					OFFSET 0.000000 0.000000 0.000000
					CHANNELS 3 Zrotation Yrotation Xrotation
					JOINT LeftArm
					{
						OFFSET 3.362410 1.200890 -0.311210
						CHANNELS 3 Zrotation Yrotation Xrotation
						JOINT LeftForeArm
						{
							OFFSET 4.983000 -0.000000 -0.000000
							CHANNELS 3 Zrotation Yrotation Xrotation
							JOINT LeftHand
							{
								OFFSET 3.483560 -0.000000 -0.000000
								CHANNELS 3 Zrotation Yrotation Xrotation
								JOINT LeftFingerBase
								{
									OFFSET 0.000000 0.000000 0.000000
									CHANNELS 3 Zrotation Yrotation Xrotation
									JOINT LeftHandIndex1
									{
										OFFSET 0.715260 -0.000000 -0.000000
										CHANNELS 3 Zrotation Yrotation Xrotation
										End Site
										{
											OFFSET 0.000000 0.000000 0.000000
										}
									}
								}
								JOINT LThumb
								{
									OFFSET 0.000000 0.000000 0.000000
									CHANNELS 3 Zrotation Yrotation Xrotation
									End Site
									{
										OFFSET 0.000000 0.000000 0.000000
									}
								}
							}
						}
					}
				}
				JOINT RightShoulder
				{
					OFFSET 0.000000 0.000000 0.000000
					CHANNELS 3 Zrotation Yrotation Xrotation
					JOINT RightArm
					{
						OFFSET -3.136600 1.374050 -0.404650
						CHANNELS 3 Zrotation Yrotation Xrotation
						JOINT RightForeArm
						{
							OFFSET -5.241900 -0.000000 -0.000000
							CHANNELS 3 Zrotation Yrotation Xrotation
							JOINT RightHand
							{
								OFFSET -3.444170 -0.000000 -0.000000
								CHANNELS 3 Zrotation Yrotation Xrotation
								JOINT RightFingerBase
								{
									OFFSET 0.000000 0.000000 0.000000
									CHANNELS 3 Zrotation Yrotation Xrotation
									JOINT RightHandIndex1
									{
										OFFSET -0.622530 -0.000000 -0.000000
										CHANNELS 3 Zrotation Yrotation Xrotation
										End Site
										{
											OFFSET 0.000000 0.000000 0.000000
										}
									}
								}
								JOINT RThumb
								{
									OFFSET 0.000000 0.000000 0.000000
									CHANNELS 3 Zrotation Yrotation Xrotation
									End Site
									{
										OFFSET 0.000000 0.000000 0.000000
									}
								}
							}
						}
					}
				}
			}
		}
	}
}
}
MOTION
Frames: 18
Frame Time: 0.008333
4.669031 17.395630 0.650838 -178.511966 -83.673355 -167.146820 1.240209 0.152130 -4.052242 -0.705913 -0.164410 -4.024203 -6.839900 -0.315706 -0.613442 9.095983 -1.574377 -5.189245 -4.327094 -0.356121 0.640719 0.000000 0.000000 0.000000 -6.209279 6.182672 2.609614 -70.073993 6.866645 9.344271 -3.308771 -15.704838 -0.003050 2.530760 3.752949 0.084994 -0.055540 -0.009033 -0.000000 0.000000 0.000000 0.000000 0.000000 0.000000 0.000000 17.610674 3.197524 0.626072 73.005797 22.767265 17.561097 2.523866 31.931427 0.007060 -1.227138 8.212347 -0.094166 0.066621 -0.203065 0.000000 0.000000 0.000000 0.000000 0.000000 0.000000 0.000000 
4.493102 17.377201 0.630666 -178.118420 -83.484676 -167.501841 1.149641 0.328669 -4.062443 -0.729664 0.020125 -4.040292 -6.798048 -0.129262 -0.654089 8.977081 -1.401035 -5.143688 -4.284094 -0.353697 0.653490 0.000000 0.000000 0.000000 -6.361734 6.590394 2.628802 -69.839488 8.009392 9.909044 -3.326212 -16.274841 -0.003075 2.143229 3.891456 0.075075 -0.056375 -0.016118 -0.000000 0.000000 0.000000 0.000000 0.000000 0.000000 0.000000 17.292610 3.605855 0.576031 72.837619 24.024725 18.852899 2.461239 33.288038 0.006982 -1.175551 8.290432 -0.091236 0.065209 -0.213275 0.000000 0.000000 0.000000 0.000000 0.000000 0.000000 0.000000 
4.316503 17.354029 0.612075 -177.426244 -83.311421 -168.151023 1.106562 0.494028 -4.072678 -0.743232 0.189764 -4.054197 -6.754321 0.042983 -0.686702 8.850103 -1.235566 -5.105821 -4.238839 -0.351012 0.664397 0.000000 0.000000 0.000000 -6.524463 7.018795 2.644601 -69.577592 9.130336 10.527164 -3.335311 -16.887863 -0.003083 1.830310 3.965451 0.065756 -0.056898 -0.023213 -0.000000 0.000000 0.000000 0.000000 0.000000 0.000000 0.000000 16.957390 3.992737 0.526899 72.622034 25.322938 20.092503 2.402010 34.585877 0.006933 -1.120507 8.363642 -0.087908 0.063856 -0.223159 0.000000 0.000000 0.000000 0.000000 0.000000 0.000000 0.000000 
4.139424 17.326282 0.595175 -176.466645 -83.153182 -169.075719 1.110606 0.649306 -4.072784 -0.746559 0.346127 -4.065400 -6.707897 0.202526 -0.717325 8.710224 -1.052756 -5.068477 -4.190862 -0.348073 0.675258 0.000000 0.000000 0.000000 -6.697001 7.463816 2.659766 -69.294885 10.220751 11.177764 -3.336707 -17.515325 -0.003042 1.599790 3.974475 0.057938 -0.057117 -0.030183 -0.000000 0.000000 0.000000 0.000000 0.000000 0.000000 0.000000 16.592048 4.384978 0.477657 72.368215 26.623102 21.216092 2.344637 35.837016 0.006939 -1.040439 8.432027 -0.082485 0.062130 -0.232765 0.000000 0.000000 0.000000 0.000000 0.000000 0.000000 0.000000 
3.961295 17.294188 0.580107 -175.211671 -83.006437 -170.295479 1.165398 0.797218 -4.071046 -0.739432 0.491203 -4.073067 -6.660053 0.351576 -0.736458 8.563302 -0.894735 -5.043984 -4.142000 -0.344934 0.682814 0.000000 0.000000 0.000000 -6.880608 7.927284 2.668978 -68.996767 11.270301 11.830448 -3.330312 -18.137601 -0.002925 1.450407 3.926817 0.052222 -0.056995 -0.037035 -0.000000 0.000000 0.000000 0.000000 0.000000 0.000000 0.000000 16.219375 4.739486 0.431032 72.065518 27.966732 22.304940 2.290929 37.020508 0.006973 -0.965610 8.502175 -0.077364 0.060569 -0.241910 0.000000 0.000000 0.000000 0.000000 0.000000 0.000000 0.000000 
3.782209 17.258139 0.566857 -173.704073 -82.868101 -171.778726 1.266857 0.938713 -4.058661 -0.722475 0.626699 -4.076897 -6.610342 0.491658 -0.749895 8.406515 -0.736073 -5.025037 -4.091973 -0.341618 0.688913 0.000000 0.000000 0.000000 -7.072326 8.405613 2.675353 -68.690553 12.270367 12.463816 -3.318344 -18.725169 -0.002726 1.376268 3.831618 0.048506 -0.056626 -0.043630 0.000000 0.000000 0.000000 0.000000 0.000000 0.000000 0.000000 15.829246 5.083406 0.385531 71.723496 29.312913 23.295167 2.239064 38.148008 0.007047 -0.877142 8.574001 -0.071148 0.058748 -0.250675 0.000000 0.000000 0.000000 0.000000 0.000000 0.000000 0.000000 
3.601896 17.218598 0.555263 -171.983830 -82.734364 -173.486597 1.409186 1.074856 -4.035501 -0.696849 0.754154 -4.076614 -6.559353 0.624220 -0.756719 8.242955 -0.581457 -5.012797 -4.041562 -0.338175 0.693201 0.000000 0.000000 0.000000 -7.268721 8.896098 2.678669 -68.382830 13.214370 13.051830 -3.302971 -19.254843 -0.002451 1.365191 3.702731 0.046592 -0.056092 -0.049914 0.000000 0.000000 0.000000 0.000000 0.000000 0.000000 0.000000 15.429043 5.412397 0.341506 71.343730 30.656219 24.189472 2.188740 39.215762 0.007148 -0.779813 8.649717 -0.064034 0.056690 -0.259049 -0.000000 0.000000 0.000000 0.000000 0.000000 0.000000 0.000000 
3.420001 17.176096 0.545082 -170.106921 -82.600667 -175.360131 1.582637 1.206664 -4.008379 -0.664774 0.874989 -4.072573 -6.509230 0.750590 -0.753146 8.081392 -0.455263 -5.012002 -3.992922 -0.334747 0.694441 0.000000 0.000000 0.000000 -7.466736 9.387756 2.676444 -68.078253 14.108342 13.557592 -3.286280 -19.718105 -0.002118 1.399924 3.557124 0.045879 -0.055445 -0.055921 0.000000 0.000000 0.000000 0.000000 0.000000 0.000000 0.000000 15.043138 5.701663 0.302226 70.920237 32.015749 25.035096 2.140712 40.210854 0.007239 -0.695655 8.732198 -0.057924 0.054764 -0.266960 -0.000000 0.000000 0.000000 0.000000 0.000000 0.000000 0.000000 
3.236623 17.131199 0.535885 -168.176010 -82.465957 -177.307736 1.772633 1.332891 -3.967415 -0.628483 0.989656 -4.064560 -6.458948 0.870890 -0.745701 7.920115 -0.324763 -5.013949 -3.944856 -0.331296 0.694843 0.000000 0.000000 0.000000 -7.657566 9.881708 2.673471 -67.785371 14.939548 13.968686 -3.271934 -20.084752 -0.001756 1.464592 3.406636 0.045968 -0.054864 -0.061508 0.000000 0.000000 0.000000 0.000000 0.000000 0.000000 0.000000 14.656912 5.985166 0.263787 70.470855 33.340556 25.760558 2.092610 41.146040 0.007329 -0.601992 8.817602 -0.050917 0.052440 -0.274547 -0.000000 0.000000 0.000000 0.000000 0.000000 0.000000 0.000000 
3.051353 17.084474 0.527248 -166.283535 -82.327788 -179.231124 1.962943 1.453846 -3.921969 -0.591564 1.099224 -4.053497 -6.411337 0.986025 -0.730420 7.770806 -0.219597 -5.023652 -3.899996 -0.328003 0.693125 0.000000 0.000000 0.000000 -7.837998 10.361554 2.666957 -67.506533 15.723076 14.247635 -3.261959 -20.358423 -0.001395 1.540360 3.267482 0.046356 -0.054384 -0.066762 0.000000 0.000000 0.000000 0.000000 0.000000 0.000000 0.000000 14.301834 6.232489 0.230991 69.988560 34.657151 26.429836 2.045771 42.006147 0.007370 -0.526019 8.907610 -0.045214 0.050224 -0.281733 -0.000000 0.000000 0.000000 0.000000 0.000000 0.000000 0.000000 
2.864361 17.036450 0.518718 -164.539393 -82.189519 178.967972 2.136257 1.567393 -3.861198 -0.556761 1.203531 -4.038923 -6.364922 1.095540 -0.713201 7.631421 -0.108896 -5.033211 -3.856612 -0.324782 0.691296 0.000000 0.000000 0.000000 -7.997398 10.831665 2.661866 -67.250279 16.442973 14.389715 -3.259632 -20.512774 -0.001070 1.614155 3.146607 0.046846 -0.054178 -0.071537 0.000000 0.000000 0.000000 0.000000 0.000000 0.000000 0.000000 13.960872 6.475367 0.198891 69.494885 35.917411 26.980093 1.998166 42.802873 0.007379 -0.445140 8.996189 -0.038913 0.047611 -0.288646 -0.000000 0.000000 0.000000 0.000000 0.000000 0.000000 0.000000 
2.675366 16.987670 0.509959 -163.013846 -82.052870 177.367476 2.278474 1.673769 -3.795678 -0.527380 1.303322 -4.022471 -6.322281 1.200040 -0.691840 7.511475 -0.017118 -5.045529 -3.816882 -0.321802 0.688679 0.000000 0.000000 0.000000 -8.135632 11.273042 2.655878 -67.016452 17.119189 14.363409 -3.266251 -20.560708 -0.000806 1.673071 3.055122 0.047136 -0.054254 -0.075922 0.000000 0.000000 0.000000 0.000000 0.000000 0.000000 0.000000 13.660128 6.688696 0.172236 68.985304 37.142169 27.467503 1.951319 43.526101 0.007321 -0.381095 9.083115 -0.033814 0.045058 -0.295215 -0.000000 0.000000 0.000000 0.000000 0.000000 0.000000 0.000000 
2.484469 16.938497 0.500612 -161.769522 -81.925671 176.023779 2.377037 1.770876 -3.718048 -0.505475 1.397908 -4.003804 -6.281848 1.298694 -0.670060 7.408237 0.075910 -5.055660 -3.779082 -0.318959 0.686524 0.000000 0.000000 0.000000 -8.244021 11.690299 2.652783 -66.811240 17.735631 14.172013 -3.283709 -20.484770 -0.000626 1.712280 2.994062 0.047326 -0.054740 -0.079783 0.000000 0.000000 0.000000 0.000000 0.000000 0.000000 0.000000 13.383999 6.892939 0.146596 68.479858 38.296499 27.852643 1.904155 44.185952 0.007217 -0.316235 9.162213 -0.028518 0.042216 -0.301511 -0.000000 0.000000 0.000000 0.000000 0.000000 0.000000 0.000000 
2.291968 16.889290 0.490499 -160.839202 -81.815585 174.966873 2.422884 1.857506 -3.627779 -0.492931 1.486786 -3.983083 -6.243795 1.390969 -0.648651 7.323120 0.167029 -5.063127 -3.743267 -0.316267 0.684941 0.000000 0.000000 0.000000 -8.319975 12.077453 2.653265 -66.636044 18.291301 13.810271 -3.312610 -20.286175 -0.000540 1.730446 2.964466 0.047418 -0.055672 -0.083081 0.000000 0.000000 0.000000 0.000000 0.000000 0.000000 0.000000 13.134947 7.084860 0.121863 67.985746 39.376560 28.145750 1.857026 44.783903 0.007069 -0.251612 9.231484 -0.023125 0.039132 -0.307534 -0.000000 0.000000 0.000000 0.000000 0.000000 0.000000 0.000000 
2.097336 16.840328 0.479775 -160.132999 -81.725682 174.128202 2.426257 1.935515 -3.541879 -0.488332 1.570088 -3.963370 -6.209105 1.477041 -0.626960 7.255954 0.248646 -5.068419 -3.709887 -0.313784 0.683978 0.000000 0.000000 0.000000 -8.369044 12.426217 2.655850 -66.488152 18.797416 13.272452 -3.352069 -19.978314 -0.000546 1.729998 2.965804 0.047508 -0.057021 -0.085844 0.000000 0.000000 0.000000 0.000000 0.000000 0.000000 0.000000 12.915634 7.256614 0.099205 67.506399 40.380587 28.366234 1.811137 45.324836 0.006889 -0.190057 9.287808 -0.017832 0.035976 -0.313206 -0.000000 0.000000 0.000000 0.000000 0.000000 0.000000 0.000000 
1.901105 16.791801 0.468282 -159.681286 -81.665967 173.522984 2.378501 2.002409 -3.444887 -0.493042 1.646763 -3.942034 -6.176169 1.555940 -0.606254 7.203425 0.328545 -5.070730 -3.677664 -0.311393 0.683624 0.000000 0.000000 0.000000 -8.383568 12.744747 2.663187 -66.369615 19.228908 12.580844 -3.401807 -19.549078 -0.000633 1.719987 2.990117 0.047700 -0.058833 -0.087932 0.000000 0.000000 0.000000 0.000000 0.000000 0.000000 0.000000 12.714660 7.416269 0.075117 67.055209 41.293367 28.496038 1.766005 45.816445 0.006699 -0.120393 9.329828 -0.011843 0.032528 -0.318582 -0.000000 0.000000 0.000000 0.000000 0.000000 0.000000 0.000000 
1.702984 16.743935 0.456349 -159.351443 -81.635175 173.035580 2.299104 2.061305 -3.350879 -0.503998 1.717599 -3.921645 -6.146542 1.628582 -0.586674 7.164206 0.397851 -5.070603 -3.647525 -0.309188 0.683895 0.000000 0.000000 0.000000 -8.374189 13.022173 2.672899 -66.273515 19.602285 11.735844 -3.459538 -19.021015 -0.000781 1.709218 3.033237 0.048192 -0.061007 -0.089415 0.000000 0.000000 0.000000 0.000000 0.000000 0.000000 0.000000 12.535705 7.555304 0.051839 66.630687 42.116257 28.556086 1.722918 46.265378 0.006515 -0.046630 9.357604 -0.005354 0.028977 -0.323601 0.000000 0.000000 0.000000 0.000000 0.000000 0.000000 0.000000 
1.502935 16.696918 0.444257 -159.056971 -81.632609 172.581765 2.201174 2.113742 -3.260695 -0.518891 1.783035 -3.901924 -6.120105 1.695578 -0.567022 7.134679 0.457412 -5.069888 -3.619210 -0.307123 0.684242 0.000000 0.000000 0.000000 -8.341933 13.270390 2.684480 -66.195167 19.900431 10.767635 -3.522840 -18.392810 -0.000957 1.710551 3.084909 0.049085 -0.063479 -0.090246 0.000000 0.000000 0.000000 0.000000 0.000000 0.000000 0.000000 12.372215 7.675804 0.027376 66.238396 42.841452 28.543597 1.682081 46.680466 0.006359 0.036179 9.371940 0.002033 0.025274 -0.328261 0.000000 0.000000 0.000000 0.000000 0.000000 0.000000 0.000000 
